#!OML:ASF F:\VICON\USERDATA\INSTALL\Justin_Nancy\Justin_Nancy.ASF
:FULLY-SPECIFIED
:DEGREES
146
root 0.868393 17.7362 -22.2044 5.85041 -1.94741 4.22733
lowerback 5.77836 1.65233 -4.3163
upperback 0.2385 1.90689 -0.266193
thorax -3.12697 1.00836 1.98454
lowerneck -14.3599 -4.54035 -9.97765
upperneck 19.2963 -5.40964 6.80285
head 8.86787 -2.57958 3.31964
rclavicle -2.03257e-014 1.07344e-014
rhumerus -31.1152 -10.6223 -82.3663
rradius 29.4246
rwrist 10.1134
rhand -13.938 10.7493
rfingers 7.12502
rthumb 12.1889 -18.8756
lclavicle -2.03257e-014 1.07344e-014
lhumerus -33.7424 14.4529 79.4612
lradius 26.2981
lwrist -9.25098
lhand -14.3645 22.8355
lfingers 7.12502
lthumb 11.7776 52.4844
rfemur -9.73627 -0.569448 17.2691
rtibia 59.7819
rfoot 16.8984 -3.37303
rtoes 7.19041
lfemur -18.6932 0.473475 -26.8502
ltibia 19.5859
lfoot -8.93954 -4.46003
ltoes -0.833821
147
root 0.876856 17.7369 -22.0676 5.72217 -1.8621 4.47233
lowerback 5.88968 1.55968 -4.50846
upperback 0.222842 1.76214 -0.334464
thorax -3.1997 0.940261 2.03138
lowerneck -13.7867 -4.54767 -10.1153
upperneck 19.0145 -5.44582 6.8617
head 8.67653 -2.6102 3.36244
rclavicle 2.40529e-014 -3.97569e-015
rhumerus -31.1649 -10.8096 -82.3396
rradius 29.7605
rwrist 10.0427
rhand -13.814 10.4344
rfingers 7.12502
rthumb 12.3085 -19.1833
lclavicle 2.40529e-014 -3.97569e-015
lhumerus -33.3268 14.3705 79.433
lradius 26.058
lwrist -9.46034
lhand -13.9367 22.9478
lfingers 7.12502
lthumb 12.1901 52.5726
rfemur -11.1495 -0.956427 16.9285
rtibia 61.8054
rfoot 14.1929 -3.21668
rtoes 5.34546
lfemur -18.0449 0.303788 -27.1552
ltibia 19.8057
lfoot -9.34931 -4.24973
ltoes 0.0224445
148
root 0.880262 17.7305 -21.9352 5.71896 -1.7659 4.67766
lowerback 5.9529 1.51597 -4.73397
upperback 0.178024 1.68141 -0.406604
thorax -3.28061 0.905279 2.08812
lowerneck -13.3689 -4.50748 -9.97685
upperneck 18.7685 -5.43628 6.78739
head 8.50983 -2.6098 3.31813
rclavicle 1.43622e-014 7.15625e-015
rhumerus -31.2612 -11.0147 -82.3429
rradius 30.3194
rwrist 9.96719
rhand -13.7283 9.49096
rfingers 7.12502
rthumb 12.3911 -20.1218
lclavicle 1.43622e-014 7.15625e-015
lhumerus -32.7981 14.2311 79.4216
lradius 25.6273
lwrist -9.44182
lhand -12.8411 24.8157
lfingers 7.12502
lthumb 13.2464 54.3748
rfemur -12.7518 -1.30184 16.6806
rtibia 63.6766
rfoot 11.8016 -3.35282
rtoes 5.45614
lfemur -17.6763 0.580458 -27.462
ltibia 20.0837
lfoot -9.69028 -4.57099
ltoes 0.819623
149
root 0.887295 17.7198 -21.799 5.61533 -1.79458 4.80164
lowerback 6.02079 1.50074 -4.86124
upperback 0.321141 1.65254 -0.408022
thorax -3.17187 0.888088 2.16119
lowerneck -13.7848 -4.52042 -9.90816
upperneck 18.9658 -5.40472 6.63781
head 8.64342 -2.59795 3.25568
rclavicle -2.98674e-014 2.3059e-014
rhumerus -30.9305 -11.1318 -82.3463
rradius 30.7576
rwrist 9.83375
rhand -14.5018 9.42202
rfingers 7.12502
rthumb 11.6453 -20.2344
lclavicle -2.98674e-014 2.3059e-014
lhumerus -32.0741 14.0303 79.6266
lradius 25.4536
lwrist -9.42171
lhand -12.3153 25.8486
lfingers 7.12502
lthumb 13.7531 55.374
rfemur -14.2096 -1.48492 16.4911
rtibia 65.3384
rfoot 9.67481 -3.44198
rtoes 5.65606
lfemur -17.2841 0.817745 -27.6731
ltibia 20.4434
lfoot -10.1147 -4.64995
ltoes 2.05756
150
root 0.89461 17.7038 -21.6613 5.53069 -1.73547 5.00849
lowerback 5.9374 1.40873 -4.95683
upperback 0.479869 1.53132 -0.476623
thorax -2.95216 0.821279 2.15898
lowerneck -14.0616 -4.49621 -9.8494
upperneck 18.9852 -5.33886 6.5496
head 8.69035 -2.56652 3.22036
rclavicle 9.83984e-015 -1.31198e-014
rhumerus -30.5727 -11.2687 -82.46
rradius 30.9504
rwrist 9.32454
rhand -16.2827 10.822
rfingers 7.12502
rthumb 9.92739 -18.9239
lclavicle 9.83984e-015 -1.31198e-014
lhumerus -31.3472 13.7191 79.7929
lradius 25.3786
lwrist -9.64729
lhand -12.463 25.5157
lfingers 7.12502
lthumb 13.6108 55.0508
rfemur -15.6615 -1.76325 16.2125
rtibia 66.7948
rfoot 7.86178 -3.37881
rtoes 5.91151
lfemur -16.8284 0.922808 -27.9786
ltibia 20.7976
lfoot -10.4997 -4.53878
ltoes 3.47083
151
root 0.89807 17.6882 -21.5306 5.55251 -1.5441 5.07282
lowerback 5.95829 1.22301 -4.9068
upperback 0.417421 1.28305 -0.519772
thorax -3.00779 0.699237 2.10709
lowerneck -13.8828 -4.36779 -9.88796
upperneck 19.0709 -5.17605 6.56226
head 8.67338 -2.49563 3.2548
rclavicle 1.8487e-014 -7.55382e-015
rhumerus -30.5653 -11.0158 -82.7391
rradius 30.7584
rwrist 7.57273
rhand -17.6563 12.951
rfingers 7.12502
rthumb 8.60207 -16.8537
lclavicle 1.8487e-014 -7.55382e-015
lhumerus -31.0549 13.2519 79.9098
lradius 25.6202
lwrist -9.5096
lhand -12.9058 25.9231
lfingers 7.12502
lthumb 13.184 55.4863
rfemur -17.2462 -2.11057 16.1607
rtibia 68.0299
rfoot 6.31019 -3.7249
rtoes 7.27333
lfemur -16.5705 1.01181 -28.1358
ltibia 21.1562
lfoot -10.8386 -4.51113
ltoes 3.60784
152
root 0.900824 17.6764 -21.3934 5.34997 -1.45706 5.14121
lowerback 6.17895 1.09682 -5.01574
upperback 0.442699 1.09687 -0.462054
thorax -3.09486 0.60993 2.24114
lowerneck -13.7524 -4.26228 -9.93342
upperneck 19.1946 -5.01189 6.44576
head 8.67525 -2.43683 3.2456
rclavicle -2.21148e-014 1.15295e-014
rhumerus -30.5018 -10.8502 -82.7388
rradius 31.0868
rwrist 7.57738
rhand -16.9834 12.2573
rfingers 7.12502
rthumb 9.25137 -17.5198
lclavicle -2.21148e-014 1.15295e-014
lhumerus -30.7843 12.8197 80.1161
lradius 25.9739
lwrist -9.6122
lhand -12.7432 26.6494
lfingers 7.12502
lthumb 13.3408 56.2023
rfemur -18.4688 -2.28841 16.1094
rtibia 69.0148
rfoot 4.69756 -4.28163
rtoes 7.32449
lfemur -16.1432 1.27501 -28.3066
ltibia 21.5257
lfoot -11.2294 -4.55143
ltoes 3.16906
153
root 0.90881 17.6656 -21.2491 5.12769 -1.47758 5.25482
lowerback 6.17873 1.02507 -5.1617
upperback 0.534222 0.996289 -0.39711
thorax -2.99583 0.558367 2.40023
lowerneck -13.6607 -4.20868 -10.0035
upperneck 19.3921 -4.9096 6.31374
head 8.71554 -2.41041 3.22766
rclavicle 2.52953e-014 -3.97569e-016
rhumerus -30.5065 -10.5872 -82.7088
rradius 31.6416
rwrist 7.03613
rhand -17.2894 12.07
rfingers 7.12502
rthumb 8.95609 -17.7199
lclavicle 2.52953e-014 -3.97569e-016
lhumerus -30.3829 12.4385 80.3464
lradius 26.0723
lwrist -9.86716
lhand -12.5219 26.6731
lfingers 7.12502
lthumb 13.554 56.212
rfemur -19.6625 -2.40191 15.9728
rtibia 69.8027
rfoot 2.93047 -4.60385
rtoes 5.92476
lfemur -15.5854 1.54779 -28.5234
ltibia 21.9108
lfoot -11.5883 -4.55472
ltoes 4.04211
154
root 0.915703 17.6562 -21.1091 5.11202 -1.52265 5.29794
lowerback 6.16602 0.97513 -5.16607
upperback 0.453642 0.928171 -0.384118
thorax -3.0671 0.527795 2.42171
lowerneck -13.729 -4.17556 -10.1922
upperneck 19.8125 -4.85861 6.44294
head 8.87523 -2.39011 3.3142
rclavicle 3.71727e-014 -1.11319e-014
rhumerus -30.7421 -10.2645 -82.783
rradius 32.3453
rwrist 6.49294
rhand -17.5522 11.5765
rfingers 7.12502
rthumb 8.70251 -18.2241
lclavicle 3.71727e-014 -1.11319e-014
lhumerus -30.0361 11.912 80.5238
lradius 25.8772
lwrist -9.5095
lhand -13.6445 25.3179
lfingers 7.12502
lthumb 12.4719 54.9258
rfemur -21.1801 -2.50038 15.9517
rtibia 70.4295
rfoot 1.40719 -4.8224
rtoes 4.70114
lfemur -15.242 1.56715 -28.6391
ltibia 22.3199
lfoot -11.9187 -4.20654
ltoes 4.79412
